<svg height="837" viewBox="0 0 398.613 133.494" width="2500" xmlns="http://www.w3.org/2000/svg"><path d="M19.49 70.785c-3.86 0-7.258-.843-10.193-2.528-2.936-1.74-5.22-4.132-6.85-7.177C.814 57.982 0 54.42 0 50.397c0-4.838 1.196-9.079 3.588-12.721 2.447-3.643 5.899-6.443 10.357-8.4 4.512-1.957 9.786-2.935 15.82-2.935 2.773 0 5.03.19 6.77.57V25.2c0-4.132-.762-7.204-2.284-9.215-1.522-2.066-3.833-3.1-6.932-3.1-5.002 0-8.21 2.638-9.623 7.911-.435 1.522-1.332 2.175-2.69 1.957L3.913 20.795c-.815-.163-1.386-.516-1.712-1.06-.272-.544-.3-1.278-.082-2.202 1.414-5.545 4.404-9.84 8.97-12.885C15.713 1.55 21.503 0 28.46 0 36.725 0 43.005 2.229 47.3 6.687c4.35 4.458 6.524 10.955 6.524 19.49v41.02c0 .598-.218 1.114-.652 1.549-.381.38-.87.57-1.469.57H41.101c-1.305 0-2.12-.706-2.447-2.119l-1.63-7.666h-.653c-1.468 3.588-3.67 6.36-6.605 8.318-2.882 1.957-6.307 2.936-10.276 2.936zM17.778 48.44c0 2.882.734 5.192 2.202 6.932 1.522 1.685 3.56 2.528 6.116 2.528 3.37 0 5.953-1.495 7.747-4.485 1.794-3.045 2.691-7.394 2.691-13.048v-4.322a24.625 24.625 0 0 0-4.322-.408c-4.458 0-7.992 1.169-10.601 3.507-2.556 2.283-3.833 5.382-3.833 9.296zM63.935 3.588c0-.598.19-1.087.57-1.468a2.117 2.117 0 0 1 1.55-.652H76.82c.597 0 1.087.19 1.467.57.436.381.707.898.816 1.55l1.631 7.992h.652c1.468-3.751 3.561-6.606 6.28-8.563C90.438 1.006 93.7 0 97.45 0c4.024 0 7.476 1.06 10.357 3.18 2.936 2.12 5.192 5.138 6.769 9.052h.653c2.392-4.131 5.083-7.203 8.073-9.215C126.293 1.006 129.636 0 133.333 0c4.024 0 7.503 1.087 10.439 3.262 2.99 2.175 5.273 5.273 6.85 9.297 1.576 4.023 2.365 8.78 2.365 14.27v40.368c0 .598-.218 1.114-.653 1.549-.38.38-.87.57-1.467.57h-13.048c-.598 0-1.115-.19-1.55-.57a2.274 2.274 0 0 1-.57-1.549V28.134c0-3.968-.762-7.013-2.284-9.133-1.522-2.12-3.724-3.18-6.606-3.18-3.153 0-5.572 1.25-7.258 3.75-1.63 2.502-2.446 6.117-2.446 10.847v36.779c0 .598-.218 1.114-.653 1.549-.38.38-.87.57-1.467.57h-13.048c-.598 0-1.115-.19-1.55-.57a2.274 2.274 0 0 1-.57-1.549V28.134c0-3.968-.761-7.013-2.284-9.133-1.522-2.12-3.724-3.18-6.605-3.18-3.154 0-5.573 1.25-7.258 3.75-1.631 2.502-2.447 6.117-2.447 10.847v36.779c0 .598-.217 1.114-.652 1.549-.38.38-.87.57-1.468.57H66.055c-.598 0-1.115-.19-1.55-.57a2.276 2.276 0 0 1-.57-1.549zm97.533 46.81c0-4.84 1.196-9.08 3.588-12.722 2.447-3.643 5.899-6.443 10.357-8.4 4.512-1.957 9.786-2.935 15.82-2.935 2.773 0 5.03.19 6.77.57V25.2c0-4.132-.762-7.204-2.284-9.215-1.523-2.066-3.833-3.1-6.932-3.1-5.002 0-8.21 2.638-9.623 7.911-.435 1.522-1.332 2.175-2.691 1.957l-11.09-1.957c-.816-.163-1.387-.516-1.713-1.06-.272-.544-.3-1.278-.082-2.202 1.414-5.545 4.404-9.84 8.97-12.885C177.18 1.55 182.97 0 189.929 0c8.264 0 14.543 2.229 18.839 6.687 4.349 4.458 6.524 10.955 6.524 19.49v41.02c0 .598-.218 1.114-.653 1.549-.38.38-.87.57-1.468.57H202.57c-1.305 0-2.12-.706-2.447-2.119l-1.63-7.666h-.653c-1.468 3.588-3.67 6.36-6.606 8.318-2.88 1.957-6.306 2.936-10.275 2.936-3.968 0-7.257-.843-10.193-2.528-2.936-1.74-5.22-4.132-6.85-7.177-1.632-3.098-2.447-6.66-2.447-10.683zm17.778-1.958c0 2.882.734 5.192 2.201 6.932 1.523 1.685 3.561 2.528 6.117 2.528 3.37 0 5.953-1.495 7.747-4.485 1.794-3.045 2.691-7.394 2.691-13.048v-4.322a24.627 24.627 0 0 0-4.322-.408c-4.458 0-7.992 1.169-10.601 3.507-2.556 2.283-3.833 5.382-3.833 9.296zm44.852 8.89c0-1.197.326-2.23.979-3.1l27.89-39.062H226.87c-.597 0-1.114-.19-1.549-.57a2.277 2.277 0 0 1-.57-1.55v-9.46c0-.598.19-1.087.57-1.468a2.117 2.117 0 0 1 1.55-.652h42.894c.599 0 1.088.217 1.469.652.435.38.652.87.652 1.468v9.868c0 1.196-.326 2.229-.979 3.099l-25.28 34.74a26.439 26.439 0 0 1 4.648-.408c3.915 0 7.503.353 10.765 1.06 3.316.653 6.741 1.74 10.275 3.262 1.25.544 1.875 1.468 1.875 2.773v9.378c0 .87-.271 1.468-.815 1.794-.543.272-1.223.245-2.039-.082-4.077-1.522-7.693-2.582-10.846-3.18-3.099-.652-6.497-.979-10.193-.979-3.697 0-7.231.327-10.765.979-3.48.652-7.34 1.712-11.58 3.18-.815.272-1.495.272-2.039 0-.543-.326-.815-.897-.815-1.712zm52.68-21.938c0-6.632 1.279-12.64 3.834-18.022 2.555-5.437 6.061-9.677 10.52-12.722C295.644 1.55 300.646 0 306.136 0c5.491 0 10.548 1.55 15.006 4.648 4.512 3.045 8.046 7.285 10.601 12.722 2.61 5.382 3.915 11.39 3.915 18.022 0 6.633-1.305 12.668-3.915 18.104-2.555 5.383-6.089 9.623-10.601 12.722-4.458 3.045-9.46 4.567-15.006 4.567-5.545 0-10.492-1.522-15.004-4.567-4.459-3.099-7.965-7.34-10.52-12.722-2.555-5.436-3.833-11.471-3.833-18.104zm17.942 0c0 6.905.978 12.233 2.936 15.984 1.957 3.697 4.783 5.545 8.48 5.545 3.698 0 6.552-1.848 8.563-5.545 2.012-3.751 3.018-9.08 3.018-15.984s-1.006-12.205-3.018-15.902c-2.011-3.751-4.865-5.627-8.563-5.627-3.697 0-6.523 1.876-8.48 5.627-1.958 3.697-2.936 8.998-2.936 15.902zm49.745-31.804c0-.598.19-1.087.57-1.468a2.116 2.116 0 0 1 1.55-.652h10.765c.597 0 1.087.19 1.468.57.435.381.707.898.815 1.55l1.631 7.992h.652c1.468-3.697 3.616-6.551 6.443-8.563C371.24 1.006 374.61 0 378.47 0c4.132 0 7.693 1.087 10.683 3.262 3.045 2.175 5.382 5.273 7.013 9.297 1.631 4.023 2.447 8.78 2.447 14.27v40.368c0 .598-.218 1.114-.653 1.549-.38.38-.87.57-1.468.57h-13.048c-.598 0-1.114-.19-1.55-.57a2.276 2.276 0 0 1-.57-1.549V28.134c0-3.968-.816-7.013-2.446-9.133-1.632-2.12-3.942-3.18-6.932-3.18-3.316 0-5.844 1.25-7.584 3.75-1.74 2.502-2.61 6.117-2.61 10.847v36.779c0 .598-.217 1.114-.652 1.549-.38.38-.87.57-1.468.57h-13.048c-.598 0-1.114-.19-1.55-.57a2.274 2.274 0 0 1-.57-1.549z" fill="#171d27"/><g fill="#ff6201"><path d="M45.343 78.693c-1.033.816-1.25 2.174-.652 4.078.544 1.685 1.821 3.778 3.833 6.279 8.1 10.003 17.75 18.321 28.95 24.954 11.2 6.633 23.187 11.525 35.963 14.679 12.83 3.207 25.933 4.811 39.307 4.811 17.125 0 33.435-2.5 48.93-7.503 15.494-4.947 28.433-11.906 38.817-20.876 3.643-3.207 5.464-5.763 5.464-7.666 0-.707-.3-1.413-.897-2.12-.816-.815-1.794-1.087-2.936-.815-1.142.271-2.745.95-4.811 2.038-9.95 5.22-22.073 9.378-36.371 12.477-14.244 3.154-29.113 4.73-44.608 4.73-19.191 0-37.73-2.61-55.617-7.829-17.886-5.219-33.734-13.374-47.543-24.464-2.011-1.577-3.643-2.583-4.893-3.018-1.196-.435-2.175-.353-2.936.245z"/><path d="M226.543 82.775c-1.142 1.088-1.44 2.23-.897 3.426.38.87 1.115 1.358 2.202 1.467 1.087.163 2.637.055 4.648-.326a75.424 75.424 0 0 1 10.194-1.468c3.534-.217 6.606-.163 9.215.163 2.61.38 4.24 1.033 4.893 1.957.979 1.469.625 4.567-1.06 9.297-1.631 4.73-3.86 9.324-6.687 13.782-1.088 1.794-1.74 3.207-1.958 4.24-.217 1.034.055 1.903.816 2.61.49.49 1.033.734 1.63.734 1.578 0 3.861-1.386 6.851-4.159 5.383-4.675 9.16-10.22 11.336-16.636 1.196-3.317 1.93-6.796 2.201-10.438.272-3.643-.136-6.253-1.223-7.83-1.033-1.522-3.316-2.772-6.85-3.75a38.682 38.682 0 0 0-10.52-1.468c-6.905 0-13.456 1.63-19.653 4.893-2.283 1.25-3.996 2.42-5.138 3.506z"/></g></svg>